<mxfile host="app.diagrams.net" modified="2023-11-23T04:43:27.597Z" agent="Mozilla/5.0 (Windows NT 10.0; Win64; x64) AppleWebKit/537.36 (KHTML, like Gecko) Chrome/109.0.0.0 Safari/537.36" etag="eOopVKWx7a24XVQ-v75h" version="22.1.3" type="github">
  <diagram name="Page-1" id="4jkC9YcIOB98EHRQIJog">
    <mxGraphModel dx="1050" dy="523" grid="0" gridSize="10" guides="1" tooltips="1" connect="1" arrows="1" fold="1" page="1" pageScale="1" pageWidth="850" pageHeight="1100" math="0" shadow="0">
      <root>
        <mxCell id="0" />
        <mxCell id="1" parent="0" />
        <mxCell id="sKS5mAfJ1W3xS_FRCThi-1" value="Lamda Function" style="swimlane;html=1;startSize=20;" vertex="1" parent="1">
          <mxGeometry x="542" y="38" width="189" height="739" as="geometry" />
        </mxCell>
        <mxCell id="sKS5mAfJ1W3xS_FRCThi-3" value="&lt;font style=&quot;font-size: 11px;&quot;&gt;Handle input event&lt;/font&gt;" style="rounded=1;whiteSpace=wrap;html=1;shadow=0;labelBackgroundColor=none;strokeWidth=1;fontFamily=Verdana;fontSize=8;align=center;" vertex="1" parent="sKS5mAfJ1W3xS_FRCThi-1">
          <mxGeometry x="48" y="78" width="100" height="60" as="geometry" />
        </mxCell>
        <mxCell id="sKS5mAfJ1W3xS_FRCThi-4" value="&lt;font style=&quot;font-size: 11px;&quot;&gt;Show authorize error to users&lt;/font&gt;" style="rounded=1;whiteSpace=wrap;html=1;shadow=0;labelBackgroundColor=none;strokeWidth=1;fontFamily=Verdana;fontSize=8;align=center;" vertex="1" parent="sKS5mAfJ1W3xS_FRCThi-1">
          <mxGeometry x="52.5" y="370" width="84" height="60" as="geometry" />
        </mxCell>
        <mxCell id="sKS5mAfJ1W3xS_FRCThi-12" value="&lt;span style=&quot;font-size: 11px;&quot;&gt;Call soap API&amp;nbsp;&lt;/span&gt;" style="rounded=1;whiteSpace=wrap;html=1;shadow=0;labelBackgroundColor=none;strokeWidth=1;fontFamily=Verdana;fontSize=8;align=center;" vertex="1" parent="sKS5mAfJ1W3xS_FRCThi-1">
          <mxGeometry x="44.5" y="177" width="100" height="60" as="geometry" />
        </mxCell>
        <mxCell id="sKS5mAfJ1W3xS_FRCThi-5" value="DMS" style="swimlane;html=1;startSize=20;" vertex="1" parent="1">
          <mxGeometry x="731" y="39" width="214" height="738" as="geometry" />
        </mxCell>
        <mxCell id="sKS5mAfJ1W3xS_FRCThi-7" value="&lt;font style=&quot;font-size: 11px;&quot;&gt;Put event to Event bus&lt;/font&gt;" style="rounded=1;whiteSpace=wrap;html=1;shadow=0;labelBackgroundColor=none;strokeWidth=1;fontFamily=Verdana;fontSize=8;align=center;" vertex="1" parent="sKS5mAfJ1W3xS_FRCThi-5">
          <mxGeometry x="128" y="375" width="82" height="60" as="geometry" />
        </mxCell>
        <mxCell id="sKS5mAfJ1W3xS_FRCThi-10" value="&lt;font style=&quot;font-size: 11px;&quot;&gt;authorized?&lt;/font&gt;" style="rhombus;whiteSpace=wrap;html=1;rounded=0;shadow=0;labelBackgroundColor=none;strokeWidth=1;fontFamily=Verdana;fontSize=8;align=center;" vertex="1" parent="sKS5mAfJ1W3xS_FRCThi-5">
          <mxGeometry x="46" y="353" width="80" height="55" as="geometry" />
        </mxCell>
        <mxCell id="sKS5mAfJ1W3xS_FRCThi-13" value="&lt;font style=&quot;font-size: 11px;&quot;&gt;return authorize error&lt;/font&gt;" style="rounded=1;whiteSpace=wrap;html=1;shadow=0;labelBackgroundColor=none;strokeWidth=1;fontFamily=Verdana;fontSize=8;align=center;" vertex="1" parent="sKS5mAfJ1W3xS_FRCThi-5">
          <mxGeometry x="32" y="408" width="84" height="60" as="geometry" />
        </mxCell>
        <mxCell id="sKS5mAfJ1W3xS_FRCThi-29" value="&lt;font style=&quot;font-size: 11px;&quot;&gt;Handle Input Soap interface&lt;/font&gt;" style="rounded=1;whiteSpace=wrap;html=1;shadow=0;labelBackgroundColor=none;strokeWidth=1;fontFamily=Verdana;fontSize=8;align=center;" vertex="1" parent="sKS5mAfJ1W3xS_FRCThi-5">
          <mxGeometry x="40" y="177" width="100" height="60" as="geometry" />
        </mxCell>
        <mxCell id="sKS5mAfJ1W3xS_FRCThi-30" value="&lt;font style=&quot;font-size: 11px;&quot;&gt;Return result&lt;/font&gt;" style="rounded=1;whiteSpace=wrap;html=1;shadow=0;labelBackgroundColor=none;strokeWidth=1;fontFamily=Verdana;fontSize=8;align=center;" vertex="1" parent="sKS5mAfJ1W3xS_FRCThi-5">
          <mxGeometry x="40" y="279" width="100" height="60" as="geometry" />
        </mxCell>
        <mxCell id="sKS5mAfJ1W3xS_FRCThi-14" value="Event Bus" style="swimlane;html=1;startSize=20;" vertex="1" parent="1">
          <mxGeometry x="945" y="38" width="186" height="737" as="geometry" />
        </mxCell>
        <mxCell id="sKS5mAfJ1W3xS_FRCThi-16" value="&lt;span style=&quot;font-size: 11px;&quot;&gt;Authorize&lt;/span&gt;" style="rounded=1;whiteSpace=wrap;html=1;shadow=0;labelBackgroundColor=none;strokeWidth=1;fontFamily=Verdana;fontSize=8;align=center;" vertex="1" parent="sKS5mAfJ1W3xS_FRCThi-14">
          <mxGeometry x="47" y="269" width="130" height="60" as="geometry" />
        </mxCell>
        <mxCell id="sKS5mAfJ1W3xS_FRCThi-18" value="&lt;font style=&quot;font-size: 11px;&quot;&gt;Return&amp;nbsp;authorize result&lt;/font&gt;" style="rounded=1;whiteSpace=wrap;html=1;shadow=0;labelBackgroundColor=none;strokeWidth=1;fontFamily=Verdana;fontSize=8;align=center;" vertex="1" parent="sKS5mAfJ1W3xS_FRCThi-14">
          <mxGeometry x="16" y="356" width="154" height="53" as="geometry" />
        </mxCell>
        <mxCell id="sKS5mAfJ1W3xS_FRCThi-19" value="AppSync/Graphql" style="swimlane;html=1;startSize=20;" vertex="1" parent="1">
          <mxGeometry x="1131" y="38" width="199" height="736" as="geometry" />
        </mxCell>
        <mxCell id="sKS5mAfJ1W3xS_FRCThi-20" value="&lt;font style=&quot;font-size: 11px;&quot;&gt;filter event by detail type and source&lt;/font&gt;" style="rounded=1;whiteSpace=wrap;html=1;shadow=0;labelBackgroundColor=none;strokeWidth=1;fontFamily=Verdana;fontSize=8;align=center;" vertex="1" parent="sKS5mAfJ1W3xS_FRCThi-19">
          <mxGeometry x="44" y="294" width="130" height="60" as="geometry" />
        </mxCell>
        <mxCell id="sKS5mAfJ1W3xS_FRCThi-22" value="&lt;span style=&quot;font-size: 11px;&quot;&gt;Send event&lt;/span&gt;" style="rounded=1;whiteSpace=wrap;html=1;shadow=0;labelBackgroundColor=none;strokeWidth=1;fontFamily=Verdana;fontSize=8;align=center;" vertex="1" parent="sKS5mAfJ1W3xS_FRCThi-19">
          <mxGeometry x="53" y="400" width="114" height="60" as="geometry" />
        </mxCell>
        <mxCell id="sKS5mAfJ1W3xS_FRCThi-24" value="React App" style="swimlane;html=1;startSize=20;" vertex="1" parent="1">
          <mxGeometry x="1330" y="38" width="203" height="734" as="geometry" />
        </mxCell>
        <mxCell id="sKS5mAfJ1W3xS_FRCThi-25" value="&lt;span style=&quot;font-size: 11px;&quot;&gt;handle event&lt;/span&gt;" style="rounded=1;whiteSpace=wrap;html=1;shadow=0;labelBackgroundColor=none;strokeWidth=1;fontFamily=Verdana;fontSize=8;align=center;" vertex="1" parent="sKS5mAfJ1W3xS_FRCThi-24">
          <mxGeometry x="48" y="398" width="100" height="60" as="geometry" />
        </mxCell>
      </root>
    </mxGraphModel>
  </diagram>
</mxfile>
